name C:\Users\u0101727\Documents\MyRepositories\upper-imu-dc\Results\main_tracking\Case_43\kinematics.mot
datacolumns 10
datarows 23
range 5.00000000 5.22000000
endheader 
time	clav_prot	clav_elev	scapula_abduction	scapula_elevation	scapula_upward_rot	scapula_winging	plane_elv	shoulder_elv	axial_rot	
          5.00000000	        -23.21208404	          2.22016096	         -0.13574973	         -4.01983781	         35.38585325	         -1.90340104	         68.80820171	         46.28034050	        -23.38655456	
          5.01000000	        -22.93673855	          2.01738237	         -0.04741529	         -4.05474382	         34.79261364	         -1.72773338	         68.59272123	         45.87175630	        -23.17452998	
          5.02000000	        -22.70947944	          1.82150660	         -0.03395444	         -4.08807501	         34.21235822	         -1.55635352	         68.36483446	         45.46688990	        -22.96129130	
          5.03000000	        -22.71020191	          1.64125552	         -0.41469638	         -4.12400449	         33.64552859	         -1.38685223	         68.12428009	         45.06543156	        -22.74695945	
          5.04000000	        -22.84651700	          1.46645288	         -1.02335457	         -4.16465250	         33.09217001	         -1.21757952	         67.87114420	         44.66718114	        -22.53131299	
          5.05000000	        -22.98598514	          1.28751163	         -1.62370791	         -4.20946169	         32.55228557	         -1.04881890	         67.60563958	         44.27188540	        -22.31413652	
          5.06000000	        -23.11307560	          1.10370347	         -2.18842097	         -4.25818109	         32.02584239	         -0.88061417	         67.32782675	         43.87925767	        -22.09508661	
          5.07000000	        -23.22739558	          0.91555048	         -2.71727674	         -4.31050450	         31.51270283	         -0.71303694	         67.03779401	         43.48900564	        -21.87368969	
          5.08000000	        -23.32935724	          0.72362900	         -3.21155128	         -4.36611121	         31.01264317	         -0.54615886	         66.73562630	         43.10081018	        -21.64933325	
          5.09000000	        -23.41959636	          0.52852617	         -3.67297139	         -4.42466309	         30.52535452	         -0.38005096	         66.42142215	         42.71433785	        -21.42126121	
          5.10000000	        -23.49888279	          0.33082558	         -4.10354375	         -4.48581032	         30.05044926	         -0.21478185	         66.09528942	         42.32924223	        -21.18858513	
          5.11000000	        -23.56809915	          0.13111417	         -4.50550764	         -4.54918655	         29.58747244	         -0.05042149	         65.75732682	         41.94516111	        -20.95031177	
          5.12000000	        -23.62821470	         -0.07002848	         -4.88127477	         -4.61441695	         29.13591342	          0.11296060	         65.40760657	         41.56172543	        -20.70538182	
          5.13000000	        -23.68025808	         -0.27203239	         -5.23336869	         -4.68112081	         28.69522034	          0.27529445	         65.04616667	         41.17857241	        -20.45271484	
          5.14000000	        -23.72529037	         -0.47434454	         -5.56436464	         -4.74891780	         28.26481378	          0.43651073	         64.67299912	         40.79535487	        -20.19124922	
          5.15000000	        -23.76437737	         -0.67643378	         -5.87683069	         -4.81743256	         27.84409931	          0.59654130	         64.28803903	         40.41174842	        -19.91997856	
          5.16000000	        -23.79855824	         -0.87779204	         -6.17326347	         -4.88629658	         27.43248084	          0.75531844	         63.89116099	         40.02745902	        -19.63798354	
          5.17000000	        -23.82880967	         -1.07794001	         -6.45601502	         -4.95515350	         27.02937490	          0.91277510	         63.48217476	         39.64222894	        -19.34445963	
          5.18000000	        -23.85600800	         -1.27643249	         -6.72721504	         -5.02366461	         26.63422752	          1.06884412	         63.06082051	         39.25584098	        -19.03874318	
          5.19000000	        -23.88088939	         -1.47286567	         -6.98868734	         -5.09151673	         26.24653459	          1.22345724	         62.62676256	         38.86812014	        -18.72033535	
          5.20000000	        -23.90401208	         -1.66688542	         -7.24186828	         -5.15843165	         25.86586530	          1.37654343	         62.17958387	         38.47893261	        -18.38892346	
          5.21000000	        -23.92572732	         -1.85819383	         -7.48774048	         -5.22417535	         25.49188689	          1.52802631	         61.71878399	         38.08818430	        -18.04439738	
          5.22000000	        -23.94616743	         -2.04655227	         -7.72679992	         -5.28856523	         25.12438607	          1.67782106	         61.24378265	         37.69581916	        -17.68685763	
